<svg xmlns="http://www.w3.org/2000/svg" width="1024" height="1024" viewBox="0 0 1024 1024">
<g>
<path d="M 601.01 567.51 L 478.52 690.00 L 417.16 690.00 L 416.56 683.75 C416.22,680.31 416.08,623.39 416.23,557.25 L 416.50 437.00 L 488.00 437.00 L 488.00 577.03 L 544.25 520.25 C575.19,489.03 605.45,458.42 611.50,452.25 L 622.50 441.02 L 673.29 440.76 L 724.09 440.50 L 723.79 442.76 C723.60,444.22 680.39,488.12 601.01,567.51 ZM 580.25 415.68 C573.04,423.28 562.04,434.56 555.81,440.75 L 544.48 451.99 L 519.00 426.50 L 493.52 401.01 L 299.50 400.50 L 298.98 328.00 L 519.50 328.02 L 556.43 364.94 L 593.36 401.86 Z" fill="rgb(12,13,15)"/>
<path d="M 724.00 440.50 L 673.29 440.76 L 622.74 441.01 C699.25,363.71 700.61,361.93 708.49,352.03 C711.76,347.92 716.33,340.89 718.63,336.40 C722.01,329.85 722.94,328.66 723.40,330.37 C723.72,331.54 723.98,357.70 723.99,388.50 ZM 618.59 549.91 C686.75,481.65 723.62,444.11 723.79,442.76 L 724.00 441.18 L 724.00 444.50 Z" fill="rgb(48,125,186)"/>
<path d="M 580.25 415.68 L 593.36 401.86 L 556.43 364.94 L 519.89 328.40 L 572.41 328.50 L 574.62 335.50 C575.84,339.35 579.75,351.73 583.32,363.00 C588.87,380.53 592.98,394.07 594.58,400.01 C594.83,400.96 585.49,411.02 569.74,426.76 L 563.57 432.93 C569.15,427.25 575.52,420.67 580.25,415.68 ZM 583.00 386.11 C583.00,386.60 583.67,387.00 584.50,387.00 C586.41,387.00 586.51,382.25 584.64,380.08 C582.86,378.00 581.00,372.38 581.00,369.04 C581.00,367.58 580.34,365.51 579.53,364.44 C578.72,363.37 578.05,360.87 578.03,358.87 C578.01,356.87 576.81,352.15 575.36,348.37 C573.91,344.59 572.34,339.25 571.88,336.50 C570.60,328.89 570.36,328.82 548.71,329.41 C530.49,329.91 528.00,330.21 528.00,331.93 C528.00,333.28 540.26,346.00 541.56,346.00 C542.22,346.00 544.50,348.14 546.63,350.75 C552.00,357.34 569.97,374.90 573.00,376.52 C575.97,378.10 583.00,384.85 583.00,386.11 ZM 614.00 424.50 C613.32,425.33 612.47,426.00 612.11,426.00 C611.10,426.00 611.09,414.07 612.10,413.44 C612.59,413.13 613.00,415.16 613.00,417.94 C613.00,421.01 613.44,423.00 614.12,423.00 C614.90,423.00 614.86,423.46 614.00,424.50 ZM 718.00 329.50 C714.76,331.35 713.35,331.35 712.64,329.50 C712.18,328.31 712.93,328.01 716.28,328.04 C720.44,328.07 720.47,328.09 718.00,329.50 ZM 615.00 328.73 C614.17,329.04 613.24,329.69 612.93,330.16 C612.62,330.64 612.06,330.72 611.68,330.35 C610.26,328.93 611.10,328.00 613.75,328.08 C615.35,328.12 615.87,328.40 615.00,328.73 ZM 546.87 449.61 L 544.49 452.00 L 544.48 451.99 ZM 302.98 328.00 L 298.98 328.00 L 298.98 327.99 Z" fill="rgb(84,172,199)"/>
<path d="M 614.00 424.50 C614.86,423.46 614.90,423.00 614.12,423.00 C613.44,423.00 613.00,421.01 613.00,417.94 C613.00,415.16 612.59,413.13 612.10,413.44 C611.75,413.66 611.52,415.24 611.41,417.21 C611.23,409.67 611.19,396.84 611.28,377.03 L 611.49 330.15 C611.55,330.21 611.61,330.28 611.68,330.35 C612.06,330.72 612.62,330.64 612.93,330.16 C613.24,329.69 614.17,329.04 615.00,328.73 C615.87,328.40 615.35,328.12 613.75,328.08 C612.71,328.05 611.95,328.17 611.50,328.42 L 611.50 328.06 L 666.00 328.07 L 714.31 328.08 C712.64,328.20 712.29,328.59 712.64,329.50 C713.11,330.74 713.90,331.15 715.33,330.73 C703.81,336.69 692.79,346.52 653.57,385.75 C635.17,404.15 619.21,419.77 613.98,424.52 ZM 583.00 386.11 C583.00,384.85 575.97,378.10 573.00,376.52 C569.97,374.90 552.00,357.34 546.63,350.75 C544.50,348.14 542.22,346.00 541.56,346.00 C540.26,346.00 528.00,333.28 528.00,331.93 C528.00,330.21 530.49,329.91 548.71,329.41 C570.36,328.82 570.60,328.89 571.88,336.50 C572.34,339.25 573.91,344.59 575.36,348.37 C576.81,352.15 578.01,356.87 578.03,358.87 C578.05,360.87 578.72,363.37 579.53,364.44 C580.34,365.51 581.00,367.58 581.00,369.04 C581.00,372.38 582.86,378.00 584.64,380.08 C586.51,382.25 586.41,387.00 584.50,387.00 C583.67,387.00 583.00,386.60 583.00,386.11 ZM 719.42 328.63 C719.90,328.27 719.70,328.13 718.63,328.08 L 720.50 328.08 ZM 612.29 425.96 C612.25,425.99 612.22,426.00 612.20,426.00 C612.21,425.99 612.24,425.98 612.29,425.96 Z" fill="rgb(73,191,230)"/>
<path d="M 0.00 512.00 L 0.00 0.00 L 512.00 0.00 L 1024.00 0.00 L 1024.00 512.00 L 1024.00 1024.00 L 512.00 1024.00 L 0.00 1024.00 L 0.00 512.00 ZM 601.26 567.25 L 724.00 444.50 L 723.99 388.50 C723.98,357.70 723.72,331.54 723.40,330.37 C722.94,328.66 722.01,329.85 718.63,336.40 C716.33,340.89 711.76,347.92 708.49,352.03 C698.52,364.55 698.99,364.08 544.74,519.77 L 488.00 577.03 L 488.00 507.02 L 488.00 437.00 L 452.25 437.00 L 416.50 437.00 L 416.23 557.25 C416.08,623.39 416.22,680.31 416.56,683.75 L 417.16 690.00 L 447.84 690.00 L 478.52 690.00 L 601.26 567.25 ZM 594.58 400.01 C592.98,394.07 588.87,380.53 583.32,363.00 C579.75,351.73 575.84,339.35 574.62,335.50 L 572.41 328.50 L 435.69 328.25 L 298.98 327.99 L 299.24 364.25 L 299.50 400.50 L 396.51 400.75 L 493.52 401.01 L 519.01 426.50 L 544.49 452.00 L 569.74 426.76 C585.49,411.02 594.83,400.96 594.58,400.01 ZM 653.57 385.75 C692.98,346.32 703.91,336.59 715.50,330.65 L 720.50 328.08 L 666.00 328.07 L 611.50 328.06 L 611.28 377.03 C611.12,413.07 611.36,426.00 612.20,426.00 C612.82,426.00 631.44,407.89 653.57,385.75 Z" fill="rgb(253,253,253)"/>
</g>
</svg>